<?xml version="1.0" standalone="no"?>
<!DOCTYPE svg PUBLIC "-//W3C//DTD SVG 20010904//EN"
 "http://www.w3.org/TR/2001/REC-SVG-20010904/DTD/svg10.dtd">
<svg version="1.0" xmlns="http://www.w3.org/2000/svg"
 width="860.000000pt" height="461.000000pt" viewBox="0 0 860.000000 461.000000"
 preserveAspectRatio="xMidYMid meet">

<g transform="translate(0.000000,461.000000) scale(0.100000,-0.100000)"
fill="#000000" stroke="none">
<path d="M1900 4550 c0 -5 -9 -10 -19 -10 -20 0 -46 -56 -43 -92 0 -12 -6 -18
-19 -18 -10 0 -19 -4 -19 -10 0 -5 -7 -10 -15 -10 -32 0 -79 -36 -68 -53 3 -5
0 -20 -8 -33 -18 -34 -2 -75 36 -93 51 -25 60 -38 44 -68 -8 -14 -20 -27 -29
-30 -29 -8 -84 -38 -123 -67 -31 -21 -37 -30 -26 -37 8 -5 22 -6 32 -3 9 3 17
0 17 -6 0 -7 6 -10 14 -7 9 4 19 -4 26 -21 33 -78 59 -94 95 -59 20 20 20 20
-2 15 -13 -4 -24 0 -27 8 -3 8 -1 14 4 14 5 0 7 7 4 15 -4 8 -12 15 -20 15
-18 0 -18 29 0 52 14 19 93 31 103 16 3 -5 24 -6 46 -2 36 6 40 5 29 -8 -13
-16 -7 -28 14 -28 7 0 10 8 7 20 -4 14 0 20 11 20 10 0 15 -7 13 -22 -1 -15 6
-26 26 -36 15 -7 27 -20 27 -28 0 -12 4 -13 21 -3 14 7 24 8 31 1 7 -7 21 1
42 26 36 44 45 44 134 0 l63 -31 -6 -41 -7 -41 22 28 c12 15 19 34 16 42 -3 8
0 15 6 15 7 0 8 -14 4 -42 -5 -29 -3 -44 6 -50 10 -6 10 -8 0 -8 -29 0 -72
-41 -72 -68 1 -23 2 -25 11 -9 5 9 21 17 34 17 13 0 27 5 30 10 4 6 11 7 17 4
7 -5 9 5 4 31 -7 34 -6 37 7 27 8 -7 18 -32 21 -56 4 -26 13 -47 22 -50 12 -5
14 -1 9 15 -6 17 -3 20 12 17 12 -2 19 -14 21 -36 3 -25 0 -31 -12 -26 -11 4
-16 0 -16 -15 0 -12 4 -21 9 -21 5 0 12 -10 14 -22 4 -20 4 -19 6 5 1 24 21
41 21 18 0 -5 7 -17 16 -25 13 -14 19 -14 50 -1 30 12 34 12 34 -1 0 -7 7 -14
15 -14 9 0 15 9 15 23 1 20 2 20 11 5 5 -10 18 -18 28 -18 19 0 20 -17 6 -66
-4 -12 -2 -25 4 -28 18 -12 12 -56 -14 -105 -27 -49 -66 -74 -102 -65 -18 5
-25 -2 -45 -45 -12 -28 -27 -51 -31 -51 -5 0 -15 -7 -24 -15 -13 -14 -20 -10
-64 36 -27 28 -49 56 -49 63 0 13 -28 39 -53 49 -24 9 -21 37 3 37 16 0 19 4
12 18 -12 21 -5 42 14 42 13 0 18 13 17 46 0 6 5 11 11 12 54 6 80 19 87 46 9
31 -6 81 -20 72 -5 -4 -11 0 -14 6 -3 10 -9 10 -30 -1 -14 -7 -32 -11 -40 -8
-8 3 -32 -3 -55 -13 -41 -19 -52 -17 -52 7 0 9 8 11 24 7 19 -4 26 -1 31 16 5
15 2 26 -6 31 -20 13 -27 11 -49 -11 -11 -11 -26 -20 -33 -20 -7 0 -20 -12
-29 -27 -34 -57 -73 -88 -133 -107 -33 -10 -72 -27 -87 -37 -14 -11 -31 -19
-37 -19 -6 0 -39 -29 -74 -65 -35 -36 -69 -65 -75 -65 -7 0 -12 -4 -12 -10 0
-15 -27 -12 -54 5 -22 15 -27 14 -64 -5 -32 -17 -45 -19 -61 -10 -12 6 -21 7
-21 3 0 -4 -9 3 -19 17 -16 20 -22 22 -34 12 -12 -10 -16 -9 -21 4 -6 16 -8
15 -29 -2 -57 -51 -58 -51 -51 -6 4 26 3 42 -4 42 -14 0 -22 51 -11 72 6 12 5
24 -3 37 -13 21 -1 43 33 61 14 8 16 6 11 -12 -3 -14 -2 -19 6 -14 7 4 15 0
19 -10 6 -16 7 -16 14 2 7 17 8 17 8 -5 1 -16 5 -21 16 -17 9 3 15 0 15 -9 0
-18 16 -20 24 -2 4 6 4 2 2 -10 -2 -13 0 -26 5 -29 15 -9 39 16 39 41 0 13 12
38 27 55 21 26 24 35 15 50 -16 25 -2 34 16 9 11 -15 17 -17 27 -9 19 16 34 4
28 -21 -4 -13 -12 -19 -23 -16 -13 3 -16 -1 -12 -18 2 -12 -3 -29 -12 -38 -22
-22 -20 -35 6 -39 20 -3 21 -4 5 -19 -9 -9 -13 -19 -10 -22 8 -9 43 12 77 44
16 16 38 31 48 35 10 3 18 10 18 15 0 5 7 9 15 9 8 0 15 9 15 19 0 10 6 21 14
24 8 3 25 24 38 46 13 23 28 41 34 41 7 0 9 11 6 26 -3 15 -10 23 -18 20 -7
-3 -18 2 -24 10 -18 21 -44 17 -68 -11 -22 -26 -42 -33 -42 -15 0 6 -6 10 -14
10 -10 0 -12 -7 -8 -22 4 -15 2 -19 -7 -13 -8 4 -10 17 -7 31 5 20 2 24 -16
25 -15 1 -18 3 -7 6 10 2 19 17 21 35 4 25 0 33 -26 49 -32 20 -63 17 -82 -7
-6 -8 -19 -14 -28 -14 -18 0 -40 -46 -32 -67 3 -7 -1 -13 -9 -13 -21 0 -19 23
5 68 l20 37 -35 3 c-27 2 -39 10 -47 28 -6 14 -19 24 -27 22 -9 -1 -22 1 -30
6 -21 13 -41 -20 -41 -68 0 -27 -7 -47 -22 -64 -20 -21 -23 -33 -21 -100 3
-70 0 -83 -33 -149 -28 -57 -44 -77 -77 -96 -65 -39 -83 -62 -69 -93 7 -13 12
-40 12 -58 0 -40 -6 -42 -160 -62 -58 -7 -141 -22 -185 -33 -44 -11 -91 -20
-105 -21 -43 0 -97 24 -128 58 -17 18 -37 32 -45 32 -8 0 -34 9 -58 19 -24 11
-61 23 -81 26 -36 7 -38 6 -38 -19 0 -22 -4 -26 -29 -26 -50 0 -81 -17 -81
-44 0 -13 7 -27 17 -30 14 -6 8 -16 -35 -55 -29 -26 -52 -56 -52 -65 0 -10 15
-23 38 -32 20 -8 61 -26 90 -40 29 -13 63 -24 75 -24 12 0 31 -6 42 -14 11 -7
60 -23 109 -35 90 -22 137 -41 168 -68 9 -8 47 -25 85 -38 37 -12 91 -32 118
-43 34 -13 88 -22 170 -26 66 -4 153 -12 193 -17 74 -10 186 -42 206 -58 6 -5
45 -26 86 -48 41 -22 93 -51 115 -64 22 -14 47 -29 55 -32 8 -4 33 -18 55 -32
22 -14 49 -29 60 -34 11 -5 33 -21 49 -35 16 -14 33 -26 37 -26 4 0 14 -6 21
-12 7 -7 31 -22 53 -33 34 -17 69 -43 136 -97 21 -17 49 -36 75 -49 12 -6 28
-22 35 -36 13 -25 76 -63 103 -63 8 0 45 -20 81 -45 36 -25 80 -48 96 -52 16
-3 29 -9 29 -14 0 -5 5 -9 11 -9 6 0 23 -8 37 -19 15 -10 58 -28 96 -40 38
-12 87 -35 110 -51 22 -17 57 -35 78 -41 24 -6 66 -36 115 -80 43 -39 84 -75
91 -80 23 -19 137 -69 155 -69 40 0 97 -45 97 -76 0 -12 7 -28 16 -35 26 -22
100 -36 155 -31 44 4 54 1 87 -25 46 -36 71 -46 197 -78 55 -15 126 -39 159
-55 32 -16 86 -34 119 -41 33 -6 72 -19 85 -30 14 -10 34 -19 46 -19 11 0 34
-7 50 -15 15 -8 33 -15 40 -15 6 0 40 -14 74 -30 35 -17 83 -33 105 -36 23 -4
74 -17 112 -31 227 -79 402 -124 456 -118 19 2 55 7 80 10 30 4 65 1 100 -9
29 -9 66 -16 82 -16 17 0 73 -13 126 -29 53 -16 132 -37 176 -46 94 -20 164
-43 186 -62 8 -7 31 -16 50 -19 19 -4 39 -10 44 -14 6 -4 30 -11 54 -15 37 -6
54 -18 103 -69 32 -33 58 -65 58 -70 0 -5 8 -19 19 -30 31 -35 42 -83 30 -132
-16 -61 -44 -77 -122 -70 -194 19 -253 18 -293 -2 -22 -11 -48 -29 -59 -39
-33 -29 -83 -63 -94 -63 -13 0 -25 -45 -17 -65 3 -8 18 -21 33 -27 15 -7 46
-24 68 -37 71 -45 79 -50 125 -72 25 -12 70 -34 101 -50 31 -16 65 -29 75 -29
10 0 37 -9 61 -21 37 -18 57 -20 155 -17 112 3 114 4 208 51 107 54 124 65
133 89 3 10 16 18 27 18 12 0 48 29 89 72 58 60 72 82 86 132 10 34 24 75 31
93 8 17 14 38 14 45 0 8 9 23 20 33 27 24 25 39 -7 60 -79 51 -74 49 -67 31 3
-9 2 -16 -4 -16 -5 0 -12 14 -16 31 -3 17 -10 28 -15 25 -5 -3 -7 3 -4 15 4
15 0 22 -17 26 -23 6 -23 4 -5 88 5 24 4 27 -5 15 -10 -12 -10 -10 -5 10 4 14
6 35 6 47 0 13 4 23 9 23 6 0 10 11 10 25 0 14 -4 25 -10 25 -5 0 -10 -9 -10
-20 0 -11 -4 -20 -10 -20 -21 0 -10 48 15 64 30 20 45 20 45 1 0 -8 9 -19 20
-25 14 -7 20 -7 20 0 0 5 -7 10 -15 10 -19 0 -19 10 1 39 14 19 14 25 3 32 -9
5 -16 3 -20 -8 -4 -11 -8 -13 -13 -5 -4 6 2 20 13 31 13 13 16 22 8 30 -7 7
-14 5 -23 -7 -13 -16 -13 -16 -14 0 0 25 -30 11 -30 -14 0 -10 -4 -16 -10 -13
-5 3 -20 8 -31 10 -30 6 -30 7 -13 40 9 17 16 45 17 62 2 26 7 33 22 33 18 0
18 1 -3 16 -12 8 -20 19 -17 24 9 15 -7 40 -26 40 -22 0 -69 28 -69 41 0 5 7
9 15 9 8 0 15 -7 15 -15 0 -8 7 -15 15 -15 27 0 16 23 -33 70 -26 25 -55 61
-64 80 -9 19 -30 43 -46 54 -15 10 -34 31 -41 47 -7 15 -18 27 -24 25 -7 -1
-9 -1 -4 1 12 7 8 30 -8 43 -19 16 -20 60 -1 60 7 0 19 6 25 14 6 7 34 16 62
19 28 4 70 15 93 26 22 10 57 22 76 26 19 4 41 12 48 18 35 28 161 68 245 78
86 11 162 8 387 -14 84 -9 318 28 435 68 39 13 111 28 189 40 29 5 36 9 25 15
-12 8 -12 12 0 32 8 13 21 35 28 49 9 19 24 29 49 34 29 5 35 10 31 25 -3 11
-1 36 3 57 7 27 5 44 -7 63 -17 30 -71 54 -97 44 -9 -4 -16 -1 -16 6 0 10 -5
9 -17 -2 -20 -16 -56 -13 -47 5 3 7 -3 2 -13 -10 -10 -13 -31 -24 -47 -25 -15
-1 -31 -8 -33 -15 -7 -18 -23 -16 -23 2 0 11 -7 14 -24 9 -13 -3 -33 -1 -43 4
-12 7 -25 7 -36 1 -12 -7 -17 -6 -17 3 0 20 -64 58 -81 48 -8 -5 -19 -4 -26 2
-10 8 -13 6 -13 -6 0 -9 -7 -16 -16 -16 -10 0 -14 6 -11 14 7 17 -24 31 -33
15 -5 -7 -13 -4 -26 9 -11 12 -32 25 -47 31 -16 6 -26 15 -22 20 3 6 -3 15
-14 21 -13 7 -22 7 -26 0 -3 -5 -15 -10 -26 -10 -15 0 -18 5 -14 23 8 29 -5
39 -71 61 -28 9 -61 28 -74 41 -12 13 -36 27 -52 30 -16 4 -32 13 -35 21 -3 8
-9 12 -13 9 -4 -3 -13 2 -20 10 -7 8 -19 15 -26 15 -8 0 -14 8 -14 18 -1 22
-81 81 -129 95 -20 6 -44 17 -54 26 -16 13 -19 13 -27 1 -8 -12 -10 -12 -10
-1 0 11 -3 11 -15 1 -12 -10 -15 -10 -15 4 0 9 -8 16 -20 16 -13 0 -18 5 -14
15 11 29 -76 55 -183 55 -93 0 -131 10 -169 46 -7 6 -56 21 -111 33 -54 13
-111 27 -128 32 -16 4 -56 11 -87 15 -32 3 -58 10 -58 15 0 16 -18 9 -23 -8
-3 -13 -5 -10 -6 7 -2 24 -2 24 -16 6 -13 -17 -15 -18 -15 -3 0 23 -17 21 -30
-3 -12 -23 -42 -28 -34 -5 4 8 2 15 -4 15 -5 0 -12 9 -15 20 -5 18 -9 19 -33
9 -20 -7 -30 -7 -32 0 -2 6 -10 11 -18 11 -17 0 -18 14 -2 40 11 16 9 23 -10
41 -26 23 -27 23 -36 -8 -6 -18 -4 -22 8 -17 21 8 21 -19 1 -36 -8 -7 -15 -9
-15 -4 0 5 -7 18 -15 28 -15 20 -15 20 -30 0 -13 -17 -14 -17 -15 -1 0 9 -6
17 -13 17 -10 0 -11 -12 -3 -55 11 -58 36 -77 36 -27 l0 27 13 -25 c7 -14 23
-26 35 -28 14 -2 22 -10 22 -24 0 -15 5 -19 19 -15 13 3 21 -1 24 -12 3 -11
14 -16 33 -15 24 1 29 5 27 25 -1 16 0 18 4 6 3 -11 11 -16 20 -13 12 5 13 0
8 -23 -5 -25 -3 -29 21 -35 17 -5 30 -3 34 4 12 20 49 2 43 -20 -3 -11 0 -20
6 -20 6 0 13 11 17 25 6 26 18 32 29 15 3 -5 2 -10 -3 -10 -6 0 -12 -7 -16
-15 -8 -23 5 -18 43 15 40 35 45 37 31 10 -6 -11 -8 -25 -5 -30 3 -6 1 -10 -4
-10 -6 0 -11 -5 -11 -10 0 -6 13 -4 30 5 17 9 30 20 30 25 0 6 4 10 10 10 5 0
7 -6 4 -13 -6 -17 21 -69 31 -59 5 4 6 0 3 -8 -19 -54 -19 -60 -3 -60 9 0 19
-9 22 -20 3 -11 9 -20 14 -20 5 0 9 -9 9 -20 0 -11 6 -20 14 -20 8 0 13 -8 12
-17 0 -10 5 -17 12 -16 6 2 12 -4 12 -12 0 -8 7 -15 15 -15 8 0 15 -5 15 -10
0 -7 -6 -7 -20 0 -16 9 -20 8 -20 -5 0 -8 7 -15 15 -15 8 0 15 -7 15 -15 0 -8
-7 -15 -15 -15 -8 0 -15 -7 -15 -15 0 -8 4 -15 9 -15 5 0 3 -21 -5 -47 -8 -26
-12 -52 -10 -58 3 -6 5 -5 5 2 1 10 7 10 26 1 15 -7 24 -17 21 -25 -3 -8 2
-13 13 -13 12 0 18 -7 17 -18 0 -9 5 -16 12 -15 6 2 12 -4 12 -13 0 -11 -6
-15 -19 -11 -12 3 -22 -1 -25 -10 -9 -23 -7 -25 15 -18 15 5 19 4 15 -4 -4 -6
0 -11 8 -11 20 0 21 -19 1 -26 -8 -4 -15 -18 -15 -33 0 -14 -4 -32 -9 -40 -11
-17 16 -51 40 -51 13 0 17 -10 17 -42 1 -22 6 -44 12 -48 16 -10 -4 -22 -23
-14 -11 4 -17 -3 -22 -24 -3 -16 -19 -39 -35 -51 -17 -12 -30 -30 -30 -39 0
-10 -5 -23 -11 -29 -8 -8 -6 -15 9 -24 18 -11 19 -14 4 -28 -14 -15 -14 -16 6
-19 27 -4 28 -11 5 -28 -20 -15 -57 -19 -49 -5 3 5 -4 11 -15 14 -12 3 -18 10
-14 16 9 15 -43 34 -72 26 -18 -4 -23 -1 -23 14 0 28 -15 34 -55 21 -30 -10
-39 -9 -64 9 -16 12 -33 21 -38 21 -4 0 -14 14 -22 31 -11 25 -11 33 -1 39 25
16 1 29 -32 18 -26 -9 -33 -8 -43 5 -7 10 -21 17 -33 17 -11 0 -22 7 -26 15
-8 23 -26 18 -27 -7 -1 -17 -2 -19 -6 -5 -2 9 -13 17 -23 17 -13 0 -17 5 -13
21 5 19 3 20 -31 14 -39 -8 -42 -5 -26 26 6 11 8 24 5 30 -10 15 -35 -9 -35
-33 0 -10 -4 -16 -10 -13 -5 3 -10 17 -10 30 0 15 -7 26 -20 30 -11 3 -20 14
-21 23 0 14 -2 14 -6 2 -15 -44 -35 -80 -43 -75 -11 7 -1 46 17 67 16 18 9 59
-9 55 -6 -1 -17 9 -24 22 -12 24 -13 24 -20 -15 l-7 -39 -9 33 c-7 27 -5 41
11 68 25 42 25 44 6 44 -9 0 -24 13 -33 30 -11 20 -26 30 -42 31 -85 5 -146 5
-155 0 -5 -3 -22 -4 -37 -2 -18 2 -28 -3 -31 -16 -4 -16 -5 -16 -6 0 -1 21
-19 23 -27 2 -8 -20 -23 -19 -46 2 -17 15 -18 15 -18 0 0 -10 -6 -17 -14 -17
-8 0 -17 -6 -19 -12 -4 -10 -6 -10 -6 0 -1 17 -31 15 -31 -3 0 -8 -7 -15 -15
-15 -8 0 -15 7 -15 15 0 9 -9 15 -23 15 -13 0 -40 15 -60 34 -20 18 -39 31
-41 28 -3 -2 -8 14 -12 38 -4 25 -13 44 -24 48 -21 9 -74 49 -111 85 -16 16
-32 26 -37 23 -5 -3 -17 3 -26 13 -15 16 -15 19 -1 24 9 4 15 19 15 37 0 17 4
29 8 26 5 -3 7 -18 4 -34 -5 -35 17 -55 25 -23 5 19 6 19 30 4 24 -16 26 -16
43 5 10 11 20 19 23 16 3 -3 5 11 4 30 -1 39 -11 47 -22 19 -7 -17 -8 -16 -15
2 -11 27 -12 37 -1 31 11 -7 37 23 44 51 5 24 -17 51 -28 33 -3 -5 -15 -10
-25 -10 -10 0 -20 -5 -22 -12 -7 -20 -38 0 -52 34 -13 29 -12 35 5 59 16 24
17 28 4 39 -8 7 -15 19 -15 28 0 13 -3 13 -19 -2 -15 -14 -20 -14 -25 -4 -5
10 -7 10 -12 1 -7 -16 -34 -17 -34 -3 0 7 -6 7 -20 0 -14 -8 -20 -8 -20 0 0 6
-5 8 -10 5 -6 -3 -17 1 -26 9 -8 9 -14 16 -12 17 2 0 11 2 21 4 34 6 28 12
-18 18 -26 4 -53 14 -61 22 -9 8 -19 13 -24 10 -11 -7 -24 13 -28 45 -2 19 0
22 8 14 13 -13 69 1 108 26 21 14 30 32 15 28 -12 -2 -113 46 -113 54 0 3 16
1 35 -5 29 -9 38 -8 53 7 47 46 89 77 112 82 14 4 39 15 56 25 28 17 38 18 83
8 40 -8 51 -15 51 -30 0 -21 -25 -26 -34 -6 -3 6 -3 0 0 -15 4 -16 2 -28 -4
-28 -5 0 -12 -10 -16 -22 -4 -18 -8 -20 -18 -10 -16 16 -28 15 -28 -3 0 -10
-10 -15 -27 -15 -40 0 -10 -18 45 -26 23 -3 46 -13 51 -21 6 -11 10 -12 15 -4
4 6 30 11 57 11 35 0 51 4 55 15 8 20 24 19 24 -1 0 -11 6 -15 20 -11 14 3 20
0 20 -10 0 -16 5 -16 89 8 47 13 66 2 55 -33 -9 -31 16 -20 64 27 37 37 47 43
54 30 5 -8 20 -15 34 -15 20 0 23 -3 16 -17 -5 -10 -6 -27 -1 -38 6 -17 8 -17
8 -2 1 14 9 17 46 15 38 -1 45 -4 45 -22 0 -12 4 -16 8 -11 4 6 20 16 36 23
25 11 28 11 22 -3 -5 -13 0 -15 28 -9 30 5 36 3 50 -23 l15 -28 1 28 c0 30 25
38 34 10 2 -10 2 0 -1 22 -5 35 -4 38 9 28 16 -14 28 -8 28 13 0 7 -16 16 -35
20 -19 3 -35 10 -35 15 0 5 -13 9 -29 9 -16 0 -34 7 -41 15 -7 8 -21 15 -31
15 -11 0 -19 5 -19 10 0 6 -12 16 -27 22 -16 7 -56 32 -90 55 -34 24 -69 43
-77 43 -8 0 -21 6 -28 13 -7 6 -33 23 -58 36 -25 14 -51 33 -58 43 -19 26
-113 68 -153 68 -17 0 -53 13 -78 28 -25 15 -62 34 -81 42 -19 7 -64 27 -100
43 -35 16 -101 40 -145 54 -44 14 -87 31 -95 38 -36 28 -150 75 -183 75 -19 0
-37 4 -39 10 -1 5 -24 11 -50 12 -27 2 -48 6 -48 10 0 4 -10 10 -22 13 -13 4
-41 15 -63 26 -29 13 -56 18 -93 15 -29 -2 -55 1 -58 6 -4 6 -9 6 -14 -2 -6
-9 -12 -9 -29 2 -18 11 -23 11 -31 -2 -6 -10 -10 -11 -10 -2 0 18 -18 15 -23
-5 -4 -17 -5 -17 -6 0 -1 21 -35 22 -75 2 -25 -13 -27 -13 -22 0 4 12 -6 15
-57 17 -154 4 -339 3 -342 -2 -3 -5 -39 -6 -69 -1 -5 0 -3 7 3 15 10 12 7 18
-19 31 -18 9 -60 44 -94 77 -33 33 -79 69 -101 79 -47 23 -64 45 -90 114 -10
28 -25 61 -34 75 -9 14 -23 37 -30 51 -39 78 -123 100 -386 99 -158 0 -206 4
-229 15 -15 8 -37 15 -48 15 -23 0 -106 37 -125 56 -14 14 -99 54 -114 54 -5
0 -9 -4 -9 -10z m-163 -497 c5 -13 -32 -27 -47 -18 -8 5 -7 11 1 21 14 17 40
15 46 -3z m715 -150 c-4 -39 -3 -45 11 -40 9 3 18 -1 21 -10 9 -23 1 -26 -23
-11 -17 10 -21 23 -21 60 0 27 4 48 9 48 5 0 6 -21 3 -47z m-965 -50 c4 -39 2
-43 -18 -43 -13 0 -19 -5 -16 -13 3 -8 -3 -13 -14 -13 -16 0 -19 8 -19 46 0
50 14 72 44 68 15 -2 20 -13 23 -45z m1500 17 c-30 -24 -37 -25 -37 -6 0 13
12 18 54 25 5 0 -3 -8 -17 -19z m-107 -9 c0 -5 -7 -11 -14 -14 -10 -4 -13 -1
-9 9 6 15 23 19 23 5z m-330 -13 c0 -11 -12 -10 -30 2 -12 7 -10 9 8 7 12 0
22 -5 22 -9z m1140 -112 c0 -17 55 -15 73 3 17 17 26 13 20 -9 -3 -10 -13 -22
-23 -25 -10 -3 -25 -17 -34 -30 -15 -22 -15 -25 -1 -25 8 0 15 -3 15 -7 -1
-16 -39 -53 -54 -53 -8 0 -19 -6 -23 -12 -23 -37 -83 -39 -83 -3 0 7 -10 17
-22 21 -13 4 -26 12 -30 18 -6 8 -8 7 -8 -1 0 -7 -7 -13 -15 -13 -22 0 -18 27
5 33 14 3 18 10 14 21 -5 14 -2 15 19 7 21 -8 25 -7 21 4 -7 18 30 34 69 30
26 -3 28 -1 22 26 -6 25 -4 29 14 29 12 0 21 -6 21 -14z m-114 -21 c-11 -8
-22 -12 -25 -9 -6 6 19 24 34 24 6 -1 1 -7 -9 -15z m189 -45 c3 -5 1 -10 -4
-10 -6 0 -11 5 -11 10 0 6 2 10 4 10 3 0 8 -4 11 -10z m149 -85 c-4 -10 0 -15
10 -15 14 0 15 -4 6 -20 -9 -16 -8 -20 5 -20 9 0 18 6 21 14 4 9 18 14 39 13
29 -2 32 -4 23 -21 -9 -16 -7 -18 6 -13 24 9 31 -18 12 -45 -9 -12 -16 -17
-16 -10 0 6 -4 12 -10 12 -5 0 -10 -9 -10 -19 0 -25 -27 -35 -33 -13 -3 9 -5
2 -6 -15 -1 -38 -2 -38 -42 -18 -16 9 -34 13 -39 10 -5 -3 -11 -1 -14 3 -3 5
-22 9 -42 10 -20 1 -44 8 -53 15 -9 8 -24 17 -34 20 -10 4 -16 11 -13 16 8 12
46 2 46 -12 0 -6 3 -7 6 -4 4 3 14 2 23 -3 19 -10 50 4 38 17 -5 4 -12 1 -17
-7 -8 -13 -10 -12 -10 3 0 15 6 17 38 12 33 -5 34 -4 15 6 -23 12 -33 59 -13
59 6 0 19 9 30 20 24 24 42 26 34 5z m-1584 -165 c0 -5 -4 -10 -10 -10 -5 0
-10 5 -10 10 0 6 5 10 10 10 6 0 10 -4 10 -10z m2020 -10 c0 -5 11 -12 25 -16
25 -6 35 -37 15 -49 -5 -3 -10 -15 -10 -26 0 -10 -7 -19 -15 -19 -19 0 -21
-60 -2 -79 10 -11 7 -13 -15 -9 -28 5 -38 -6 -38 -43 0 -10 -4 -19 -10 -19 -5
0 -10 8 -10 18 0 10 -5 23 -12 30 -9 9 -9 12 1 12 7 0 9 5 6 10 -4 6 -1 18 6
26 15 19 8 25 -31 26 -17 1 -34 7 -37 15 -4 11 -8 10 -19 -4 -11 -14 -13 -15
-14 -3 0 18 -46 41 -65 34 -17 -7 -58 33 -44 42 6 3 22 3 35 0 20 -5 27 -3 31
13 4 15 17 20 68 26 35 3 77 10 92 15 38 11 43 11 43 0z m-353 -6 c-3 -3 -12
-4 -19 -1 -8 3 -5 6 6 6 11 1 17 -2 13 -5z m25 -36 c-6 -6 -15 -8 -19 -4 -4 4
-1 11 7 16 19 12 27 3 12 -12z m-202 -36 c0 -7 -4 -11 -9 -8 -5 4 -11 0 -14
-6 -2 -7 -8 -10 -12 -6 -5 5 -3 20 4 35 10 22 14 24 22 12 5 -7 9 -20 9 -27z
m337 -109 c-3 -3 -11 -2 -17 2 -9 6 -9 10 1 16 14 8 27 -7 16 -18z m113 -63
c0 -5 -12 -10 -26 -10 -14 0 -23 4 -19 10 3 6 15 10 26 10 10 0 19 -4 19 -10z
m67 -4 c-3 -7 0 -19 6 -25 8 -8 5 -11 -10 -11 -12 0 -30 -3 -40 -6 -15 -5 -14
-2 5 14 12 11 22 25 22 31 0 6 5 11 11 11 6 0 9 -6 6 -14z m-144 -27 c4 -15 1
-19 -11 -17 -21 4 -29 38 -9 38 8 0 17 -9 20 -21z m167 -29 c0 -5 -4 -10 -10
-10 -5 0 -10 5 -10 10 0 6 5 10 10 10 6 0 10 -4 10 -10z m-173 -46 c-3 -3 -12
-4 -19 -1 -8 3 -5 6 6 6 11 1 17 -2 13 -5z m324 -129 c13 4 19 2 19 -9 0 -15
-11 -20 -73 -31 -27 -4 -37 -3 -32 4 3 6 1 11 -4 11 -6 0 -11 5 -11 12 0 9 3
9 12 0 16 -16 41 -15 35 2 -8 21 15 40 26 21 5 -10 16 -14 28 -10z m1366 -47
c-3 -8 -6 -5 -6 6 -1 11 2 17 5 13 3 -3 4 -12 1 -19z m-1220 -14 c-3 -3 -12
-4 -19 -1 -8 3 -5 6 6 6 11 1 17 -2 13 -5z m3 -26 c0 -7 -8 -22 -16 -33 -14
-19 -15 -19 -10 10 6 38 4 35 16 35 6 0 10 -6 10 -12z m-53 -50 c-3 -8 -6 -5
-6 6 -1 11 2 17 5 13 3 -3 4 -12 1 -19z m130 -110 c-3 -8 -6 -5 -6 6 -1 11 2
17 5 13 3 -3 4 -12 1 -19z m-173 -34 c5 -24 3 -33 -8 -37 -13 -5 -16 2 -16 40
0 51 13 49 24 -3z m56 -104 c0 -5 -4 -10 -10 -10 -5 0 -10 5 -10 10 0 6 5 10
10 10 6 0 10 -4 10 -10z m180 -106 c0 -8 -5 -12 -10 -9 -6 4 -8 11 -5 16 9 14
15 11 15 -7z m1500 -68 c-8 -8 -13 -7 -20 4 -12 20 -1 33 16 19 11 -9 12 -15
4 -23z m-1195 -74 c10 -7 17 -42 7 -42 -6 0 -31 33 -32 43 0 9 12 9 25 -1z
m63 -22 c11 -18 10 -20 -8 -20 -13 0 -20 7 -20 20 0 11 3 20 8 20 4 0 13 -9
20 -20z m162 -20 c0 -5 -2 -10 -4 -10 -3 0 -8 5 -11 10 -3 6 -1 10 4 10 6 0
11 -4 11 -10z m60 -5 c0 -8 -4 -15 -10 -15 -5 0 -10 7 -10 15 0 8 5 15 10 15
6 0 10 -7 10 -15z m2310 1 c0 -3 -4 -8 -10 -11 -5 -3 -10 -1 -10 4 0 6 5 11
10 11 6 0 10 -2 10 -4z m-2433 -28 c-3 -8 -6 -5 -6 6 -1 11 2 17 5 13 3 -3 4
-12 1 -19z m61 -18 c26 -21 22 -43 -6 -33 -20 8 -32 23 -32 41 0 17 11 15 38
-8z m-121 -27 c-3 -10 -5 -4 -5 12 0 17 2 24 5 18 2 -7 2 -21 0 -30z m-160
-95 c-3 -8 -6 -5 -6 6 -1 11 2 17 5 13 3 -3 4 -12 1 -19z m359 5 c14 -19 19
-53 7 -53 -3 0 -15 7 -25 17 -17 15 -18 15 -19 -3 0 -10 -3 -14 -5 -8 -5 13
12 64 22 64 4 0 13 -8 20 -17z m644 -293 c0 -5 6 -7 13 -5 6 2 28 1 47 -3 l35
-8 -32 -16 c-27 -13 -33 -14 -37 -2 -3 8 -15 14 -26 14 -11 0 -20 7 -20 15 0
8 5 15 10 15 6 0 10 -4 10 -10z m110 -49 c0 -5 -6 -14 -14 -20 -16 -13 -32 2
-21 19 8 12 35 13 35 1z m35 -31 c3 -6 -1 -13 -10 -16 -19 -8 -30 0 -20 15 8
14 22 14 30 1z m70 -70 c10 -11 13 -20 7 -20 -7 0 -12 5 -12 10 0 6 -7 10 -15
10 -8 0 -15 5 -15 10 0 16 15 12 35 -10z m75 0 c0 -5 -4 -10 -9 -10 -6 0 -13
5 -16 10 -3 6 1 10 9 10 9 0 16 -4 16 -10z m-357 -195 c4 -8 2 -17 -3 -20 -6
-4 -10 3 -10 14 0 25 6 27 13 6z m477 0 c0 -8 -4 -15 -10 -15 -5 0 -10 -7 -10
-15 0 -8 -7 -15 -15 -15 -10 0 -14 9 -12 30 2 24 7 30 25 30 13 0 22 -6 22
-15z m50 -71 c0 -8 -10 -4 -26 11 -15 14 -23 29 -18 36 8 14 44 -24 44 -47z
m-552 14 c2 -10 -2 -18 -8 -18 -7 0 -10 6 -7 14 4 10 -3 17 -24 20 -28 6 -28
6 3 4 22 -2 34 -9 36 -20z m73 -5 c13 -17 13 -17 -6 -3 -11 8 -22 16 -24 17
-2 2 0 3 6 3 6 0 17 -8 24 -17z m436 -35 c-3 -8 -6 -5 -6 6 -1 11 2 17 5 13 3
-3 4 -12 1 -19z m-560 -20 c-3 -8 -6 -5 -6 6 -1 11 2 17 5 13 3 -3 4 -12 1
-19z m290 -60 c-2 -39 0 -43 22 -43 13 0 26 -6 28 -12 3 -7 -2 -13 -11 -13 -9
0 -16 -7 -16 -15 0 -18 26 -20 33 -2 2 6 6 -16 8 -51 4 -57 2 -65 -18 -78 -13
-8 -23 -10 -23 -5 0 5 -5 22 -12 38 -15 35 -17 113 -3 113 5 1 -3 8 -19 16
-20 12 -25 18 -16 24 7 4 10 13 6 18 -5 9 12 52 21 52 1 0 2 -19 0 -42z m403
-137 c0 -12 -20 -25 -27 -18 -7 7 6 27 18 27 5 0 9 -4 9 -9z m-243 -73 c-3 -8
-6 -5 -6 6 -1 11 2 17 5 13 3 -3 4 -12 1 -19z m-667 -2 c0 -3 -4 -8 -10 -11
-5 -3 -10 -1 -10 4 0 6 5 11 10 11 6 0 10 -2 10 -4z m970 -26 c0 -5 -5 -10
-11 -10 -5 0 -7 5 -4 10 3 6 8 10 11 10 2 0 4 -4 4 -10z m-210 -100 c0 -5 -5
-10 -11 -10 -5 0 -7 5 -4 10 3 6 8 10 11 10 2 0 4 -4 4 -10z m35 -29 c3 -5 1
-12 -5 -16 -5 -3 -10 1 -10 9 0 18 6 21 15 7z m152 -113 c-3 -7 -5 -2 -5 12 0
14 2 19 5 13 2 -7 2 -19 0 -25z"/>
<path d="M3683 3700 c2 -8 10 -15 17 -15 7 0 15 7 17 15 4 13 3 13 -6 0 -10
-13 -12 -13 -22 0 -9 13 -10 13 -6 0z"/>
<path d="M3925 3511 c-3 -5 -1 -12 5 -16 5 -3 10 1 10 9 0 18 -6 21 -15 7z"/>
<path d="M4160 3350 c0 -5 5 -10 10 -10 6 0 10 5 10 10 0 6 -4 10 -10 10 -5 0
-10 -4 -10 -10z"/>
<path d="M1780 4496 c0 -8 9 -14 19 -13 15 1 17 4 9 14 -14 17 -28 16 -28 -1z"/>
<path d="M1715 4450 c-8 -14 3 -30 21 -30 16 0 16 2 8 24 -7 18 -20 21 -29 6z"/>
<path d="M1970 3989 c0 -5 5 -7 10 -4 6 3 10 8 10 11 0 2 -4 4 -10 4 -5 0 -10
-5 -10 -11z"/>
<path d="M2327 3803 c-12 -11 -8 -23 8 -23 8 0 15 7 15 15 0 16 -12 20 -23 8z"/>
<path d="M2652 3648 c-14 -14 -16 -35 -3 -42 5 -3 11 8 13 24 3 17 4 30 3 30
0 0 -6 -5 -13 -12z"/>
<path d="M1422 3450 c0 -14 2 -19 5 -12 2 6 2 18 0 25 -3 6 -5 1 -5 -13z"/>
<path d="M173 3360 c-10 -11 -23 -20 -30 -20 -7 0 -13 -7 -13 -15 0 -10 8 -14
23 -11 12 2 21 9 19 15 -2 12 4 15 52 26 23 5 27 8 15 16 -23 14 -48 10 -66
-11z"/>
<path d="M4690 3280 c0 -5 5 -10 10 -10 6 0 10 5 10 10 0 6 -4 10 -10 10 -5 0
-10 -4 -10 -10z"/>
<path d="M148 3273 c-20 -5 -32 -33 -19 -46 11 -11 68 12 76 30 2 7 0 13 -4
13 -5 0 -15 2 -23 4 -7 2 -20 2 -30 -1z"/>
<path d="M5613 3143 c-20 -7 -15 -23 7 -23 11 0 20 4 20 9 0 13 -12 19 -27 14z"/>
<path d="M5650 3125 c0 -8 7 -15 15 -15 8 0 15 4 15 9 0 5 -7 11 -15 15 -9 3
-15 0 -15 -9z"/>
<path d="M110 3120 c0 -13 18 -22 24 -11 3 5 -1 11 -9 15 -8 3 -15 1 -15 -4z"/>
<path d="M4600 3000 c0 -5 5 -10 11 -10 8 0 7 -5 -2 -16 -11 -14 -9 -15 16
-12 30 3 48 28 21 28 -9 0 -16 5 -16 10 0 6 -7 10 -15 10 -8 0 -15 -4 -15 -10z"/>
<path d="M4895 2881 c-3 -6 -16 -11 -28 -12 -12 0 -16 -3 -10 -6 9 -3 10 -10
2 -24 -8 -16 -6 -21 12 -28 29 -10 8 -25 -24 -17 -20 4 -22 1 -23 -32 -1 -20
1 -30 3 -20 5 20 30 31 39 17 3 -5 -6 -21 -20 -34 -34 -32 -33 -45 7 -72 58
-40 91 -22 47 25 -20 21 -27 37 -12 28 5 -3 8 5 8 16 -1 13 8 27 21 33 13 7
20 15 16 18 -4 4 2 14 13 21 18 14 18 15 1 22 -13 5 -17 15 -15 37 2 23 -2 32
-14 35 -9 2 -19 -2 -23 -7z"/>
<path d="M6087 2813 c-4 -3 -7 -11 -7 -17 0 -6 5 -5 12 2 6 6 9 14 7 17 -3 3
-9 2 -12 -2z"/>
<path d="M4938 2674 c-4 -5 0 -18 8 -29 15 -20 17 -12 5 19 -4 11 -10 15 -13
10z"/>
<path d="M4819 2650 c-4 -8 -2 -23 3 -32 9 -19 38 -25 38 -8 0 6 -6 10 -14 10
-8 0 -16 10 -18 23 -3 16 -5 18 -9 7z"/>
<path d="M4990 2639 c0 -5 5 -7 10 -4 6 3 10 8 10 11 0 2 -4 4 -10 4 -5 0 -10
-5 -10 -11z"/>
<path d="M4783 2615 c-10 -10 -9 -15 4 -19 21 -8 27 -1 16 17 -6 12 -10 13
-20 2z"/>
<path d="M6185 2458 c-7 -18 -11 -35 -8 -38 7 -7 43 40 43 56 0 26 -21 14 -35
-18z"/>
<path d="M5055 2450 c3 -5 16 -10 28 -9 21 0 21 1 2 9 -28 12 -37 12 -30 0z"/>
<path d="M7885 2330 c-3 -5 -1 -10 4 -10 6 0 11 5 11 10 0 6 -2 10 -4 10 -3 0
-8 -4 -11 -10z"/>
<path d="M8497 2165 c-20 -24 -33 -46 -27 -50 12 -7 50 30 50 50 0 7 7 18 16
23 9 5 12 12 7 15 -5 3 -26 -14 -46 -38z"/>
<path d="M8372 2147 c-30 -32 -28 -38 8 -21 17 9 30 22 30 30 0 20 -13 17 -38
-9z"/>
<path d="M5740 2064 c0 -8 5 -12 10 -9 6 3 10 10 10 16 0 5 -4 9 -10 9 -5 0
-10 -7 -10 -16z"/>
<path d="M5930 2010 c0 -5 7 -10 16 -10 8 0 12 5 9 10 -3 6 -10 10 -16 10 -5
0 -9 -4 -9 -10z"/>
<path d="M5960 1962 c0 -7 -6 -12 -14 -12 -28 0 -25 -39 6 -70 32 -33 88 -42
88 -15 0 8 -7 15 -16 15 -11 0 -14 6 -9 20 6 18 3 19 -25 13 -38 -7 -58 14
-32 33 9 7 14 16 9 20 -4 4 -7 2 -7 -4z"/>
<path d="M6632 1098 c2 -6 10 -14 16 -16 7 -2 10 2 6 12 -7 18 -28 22 -22 4z"/>
</g>
</svg>
